<svg width="61" height="56" viewBox="0 0 61 56" fill="none" xmlns="http://www.w3.org/2000/svg">
<path d="M36.1064 0.592671C49.2746 3.38063 58.7708 13.6729 60.3274 26.7239C61.6732 38.0065 55.3799 51.2335 46.5601 55.4274C44.7536 52.0122 42.2682 49.237 38.3383 47.7034C42.5718 44.443 45.8771 40.7528 45.0109 35.1071C44.2135 29.9095 41.1331 26.199 36.6155 23.4801C37.0161 21.9409 37.4287 20.3556 37.8505 18.735C39.2081 19.6465 40.5368 20.5387 41.7463 21.3508C42.1204 21.1337 42.2575 21.1035 42.2941 21.0257C43.7118 18.0107 41.0333 12.3623 37.8347 11.5896C36.1959 11.1937 34.6657 11.5218 34.0463 13.1214C33.1517 15.4318 32.5672 17.8702 31.9577 20.2814C31.7406 21.1403 31.8368 22.0791 31.7831 23.1127C31.1733 23.14 30.6277 23.1645 30.0512 23.1904C30.0512 21.2176 30.2309 19.3415 30.0175 17.5116C29.3808 12.0511 26.6413 7.79326 22.2422 4.57991C21.8994 4.3295 21.5236 4.11396 21.1394 3.93313C19.7127 3.26168 19.139 3.54615 19.3941 5.09359C19.862 7.93275 20.4037 10.7868 21.2547 13.5283C22.3274 16.9842 23.7408 20.3334 25.0328 23.7975C20.6807 26.145 17.3289 29.5634 16.6906 34.8316C16.0427 40.1788 19.2027 43.8928 22.9398 47.4853C18.7776 48.9166 16.0393 51.8081 13.9009 55.3242C3.87538 49.3044 -3.23797 34.9943 1.8686 20.2491C6.74495 6.16863 21.5089 -2.33106 36.1064 0.592671Z" fill="#202020"/>
</svg>
